<svg xmlns="http://www.w3.org/2000/svg" version="1.1" xmlns:xlink="http://www.w3.org/1999/xlink" xmlns:svgjs="http://svgjs.dev/svgjs" width="48" height="48"><svg width="48" height="48" viewBox="0 0 12.7 12.7" version="1.1" id="SvgjsSvg1348" xml:space="preserve" inkscape:version="1.3.2 (091e20e, 2023-11-25, custom)" sodipodi:docname="logo.svg" xmlns:inkscape="http://www.inkscape.org/namespaces/inkscape" xmlns:sodipodi="http://sodipodi.sourceforge.net/DTD/sodipodi-0.dtd" xmlns="http://www.w3.org/2000/svg" xmlns:svg="http://www.w3.org/2000/svg"><sodipodi:namedview id="SvgjsSodipodi:namedview1347" pagecolor="#000000" bordercolor="#000000" borderopacity="0.25" inkscape:showpageshadow="2" inkscape:pageopacity="0.0" inkscape:pagecheckerboard="true" inkscape:deskcolor="#d1d1d1" inkscape:document-units="mm" showgrid="false" inkscape:zoom="16" inkscape:cx="17.125" inkscape:cy="28.75" inkscape:window-width="3840" inkscape:window-height="2071" inkscape:window-x="1911" inkscape:window-y="-9" inkscape:window-maximized="1" inkscape:current-layer="layer1"></sodipodi:namedview><defs id="SvgjsDefs1346"></defs><g inkscape:label="Layer 1" inkscape:groupmode="layer" id="SvgjsG1345"><path id="SvgjsPath1344" style="fill:#6d6d6d;fill-opacity:0.0460526;stroke:#7f7f7f;stroke-width:0.288822" d="M 12.53059,6.3500004 A 6.1805892,6.1805892 0 0 1 6.3500004,12.53059 6.1805892,6.1805892 0 0 1 0.16941118,6.3500004 6.1805892,6.1805892 0 0 1 6.3500004,0.16941118 6.1805892,6.1805892 0 0 1 12.53059,6.3500004 Z"></path><g id="SvgjsG1343" transform="matrix(1.7905212,0,0,1.8520468,-5.1382211,-5.4013611)"><path id="SvgjsPath1342" style="fill:#808080;fill-opacity:1;stroke:#b30000;stroke-width:0.1;stroke-dasharray:none;stroke-opacity:0" d="m 6.1174561,3.6168335 c -0.2564183,0.00156 -1.3179224,0.06654 -1.8939413,1.0061401 -0.01958,0.031934 0,0.059945 0,0.059945 V 4.9878092 L 3.8690145,5.1924479 c 0,0 -0.6730597,1.2940197 0.099735,2.3244059 0.01499,0.019992 0.059945,0.010335 0.059945,0.010335 L 4.1635699,7.5370088 5.823417,6.578411 V 5.9877482 L 6.3313965,5.6942261 V 3.7083008 L 6.1743001,3.617867 c 0,0 -0.020213,-0.00126 -0.056844,-0.00103 z M 5.5056071,5.494755 5.7707072,5.6508179 5.7681234,5.9588094 5.4999227,6.1107381 5.2348226,5.9541585 5.2374064,5.646167 Z"></path><path id="SvgjsPath1341" style="fill:#808080;fill-opacity:1;stroke:#b30000;stroke-width:0.1;stroke-dasharray:none;stroke-opacity:0" d="m 6.7148089,3.6169991 c 0.2564183,0.00156 1.3179224,0.06654 1.8939413,1.0061401 0.01958,0.031934 0,0.059945 0,0.059945 v 0.3048909 l 0.3545003,0.2046387 c 0,0 0.6730597,1.2940197 -0.099736,2.3244059 -0.01499,0.019992 -0.059945,0.010335 -0.059945,0.010335 L 8.6686949,7.5371732 7.0088478,6.5785754 V 5.9879138 L 6.5008685,5.6943917 V 3.7084664 l 0.1570964,-0.090434 c 0,0 0.020213,-0.00126 0.056844,-0.00103 z m 0.611849,1.8779215 -0.2651001,0.1560629 0.00258,0.3079915 0.2682007,0.1519287 0.2651001,-0.1565796 -0.00258,-0.3079915 z"></path><path id="SvgjsPath1340" style="display:inline;fill:#808080;fill-opacity:1;stroke:#b30000;stroke-width:0.1;stroke-dasharray:none;stroke-opacity:0" d="M 4.2163385,7.9326658 C 4.3458987,8.1539505 4.9329251,9.04075 6.0346521,9.069797 c 0.037446,9.898e-4 0.051914,-0.029973 0.051914,-0.029973 l 0.2640432,-0.1524455 0.3544725,0.204687 c 0,0 1.4571838,-0.064123 1.9631262,-1.2485769 0.0098,-0.022978 -0.02102,-0.057081 -0.02102,-0.057081 L 8.5882532,7.6646929 6.9281596,6.706522 6.4166303,7.0018536 5.9084431,6.7086916 4.1885813,7.7016543 4.1888114,7.8829208 c 0,0 0.00902,0.018135 0.02753,0.049743 z m 1.9322523,-0.409084 0.0026,-0.3076149 0.2680185,-0.1517614 0.2656745,0.1563043 -0.00305,0.3078732 -0.2680184,0.1517614 z"></path></g></g><style id="SvgjsStyle1339">@media (prefers-color-scheme: light) { :root { filter: contrast(1) brightness(0.1); } }
@media (prefers-color-scheme: dark) { :root { filter: none; } }
</style></svg><style>@media (prefers-color-scheme: light) { :root { filter: none; } }
@media (prefers-color-scheme: dark) { :root { filter: none; } }
</style></svg>